<?xml version="1.0" encoding="UTF-8" standalone="no"?>
<svg
  version="1.1"
  viewBox="0 0 1371 689"
  xmlns="http://www.w3.org/2000/svg"
  xmlns:html="http://www.w3.org/1999/xhtml"
>
  <title>Scribble Head</title>
  <defs>
    <style type="text/css">/*<![CDATA[*/
path {
  fill:none;
  stroke: #111;
  stroke-linecap: round;
  stroke-linejoin:round;
  stroke-dasharray: 13000;
  stroke-dashoffset: 0;
  stroke-width: 2.5;
  animation: draw 10s ease-in-out alternate infinite;
  animation-delay: 15s;
}

path:hover {
  animation-play-state: paused;
}

@keyframes draw {
  0% {
    stroke: green;
    stroke-dashoffset: 0;
    stroke-width: 2.5;
  }
  25% { stroke: red }
  50% {
    stroke: orange;
    stroke-width: 6;
 }
  75% { stroke: purple }
  100% {
    stroke: blue;
    stroke-dashoffset: 13000;
    stroke-width: 0.25;
  }
}
    /*]]>*/</style>
  </defs>
  <g
     transform="translate(-4.2895399,-864.92351)">
    <path
       d="m 5.628838,901.34286 c -0.9875808,1.39258 89.420828,110.17124 225.838272,59.77931 39.51282,-14.59585 90.9416,-37.78956 126.31843,6.14404 17.86908,22.19117 3.71967,80.55339 -28.05586,62.33629 -36.22268,-20.7667 3.00054,-70.39963 26.93648,-92.0645 43.76407,-39.6117 109.27608,-45.41719 162.95132,-22.19833 37.96929,16.42477 86.97984,59.95997 90.03537,61.90547 10.32493,6.57404 29.1078,3.62839 37.69325,-5.74279 10.81742,-11.80742 9.52992,-25.42807 0.59162,-27.56257 -11.03259,-2.63463 -14.50035,9.42888 -11.0585,19.92336 2.05272,6.2589 3.54486,15.5616 15.96501,22.52131 14.56351,8.16076 35.67642,7.06102 51.89451,3.10283 13.50604,-3.29628 25.83454,-12.62247 29.12588,-24.36875 4.34382,-15.50238 -6.22386,-34.68111 -20.15433,-42.7517 -11.37011,-6.58726 -24.93816,-8.01494 -39.19839,6.19567 -9.37906,9.34643 -16.65863,27.00331 -12.7206,41.23538 3.80746,13.7602 22.90908,20.20179 35.56258,24.88984 11.34205,4.20217 28.22319,7.04298 30.07642,-6.33797 1.16259,-8.39438 -8.93287,-29.04772 -18.78759,-30.73279 -11.42425,-1.95345 -22.4455,10.45324 -27.746,20.76023 -6.52786,12.69361 -9.79233,28.92471 -2.84244,41.39221 7.70715,13.826 39.23729,20.4592 63.32747,26.7096 10.09974,2.6204 21.46289,2.0537 32.64344,3.386 20.47454,2.4399 45.41487,-3.7746 53.04567,-9.7407 11.85775,-9.2708 6.67091,-21.3883 -0.41998,-36.0065 -12.09523,-24.93482 -34.60801,-39.65628 -57.57937,-37.12072 -17.62942,1.94592 -30.97472,18.80104 -41.94795,32.73558 -2.51078,3.18834 -11.90834,28.44554 -4.49861,34.58254 7.70585,6.3822 23.20732,-7.0148 32.47368,-25.7704 4.37863,-8.86259 8.89563,-19.01013 10.38739,-25.41573 4.75201,-20.40511 -0.76785,-33.99459 -14.57307,-42.11327 -12.5687,-7.3915 -30.83179,-2.96631 -43.12121,3.9092 -12.38192,6.92727 -22.32141,18.76067 -29.93633,28.46624 -8.5785,10.93369 -14.94178,29.65686 -28.28569,32.07476 -14.07305,2.5499 -27.81826,-10.01864 -38.18519,-19.26795 -16.31502,-14.55616 -29.31076,-22.50425 -44.2004,-12.06458 -4.20611,2.94906 -7.5146,8.187 -11.76064,12.704 -8.00008,8.51062 -16.62276,17.47493 -18.78281,25.78883 -4.30158,16.5566 0.32947,38.8792 9.06593,55.6368 8.4513,16.2106 22.956,28.9546 39.93026,35.7431 22.65638,9.0611 52.84698,8.5682 72.8038,-0.3264 11.65469,-5.1944 25.0987,-16.6406 18.74079,-28.4357 -6.17339,-11.4528 -23.37023,-25.9497 -35.70844,-21.8209 -9.82913,3.2892 -11.11121,16.8462 -8.4828,26.8723 5.72556,21.8402 30.40043,39.3758 51.29227,47.9377 33.60572,13.7723 76.65892,20.3095 109.81542,5.4884 22.04165,-9.8527 41.8871,-32.6486 45.24944,-56.5569 3.2635,-23.2055 -5.90253,-49.6289 -26.61994,-67.4999 -14.01551,-12.08995 -34.77402,2.7471 -44.53959,14.2784 -10.79983,12.7525 -15.24079,33.9854 1.42855,37.1451 12.22933,2.318 32.43777,-3.5273 24.37678,-26.5886 -9.7795,-27.9777 -29.10628,-48.90115 -48.03285,-66.9217 -13.35494,-12.71564 -28.63903,-25.48153 -46.54072,-29.90553 -14.77342,-3.65092 -32.13683,-3.36467 -45.48254,3.94801 -16.15827,8.8538 -26.16711,27.01005 -33.66499,43.84041 -8.24798,18.51411 -14.66969,39.83661 -11.0861,59.78551 2.77621,15.4544 11.60361,31.0184 24.17145,40.4309 14.91697,11.1719 36.93877,21.2501 54.12074,14.0316 13.04226,-5.4793 19.67073,-20.6427 20.15057,-34.7811 0.71534,-21.0771 -6.33048,-42.5472 -18.88673,-57.1822 -11.79017,-13.74203 -27.83896,-11.18128 -37.80691,1.0404 -8.42411,10.3288 -16.53869,25.0822 -17.45392,35.9751 -1.25624,14.9516 5.82357,30.9411 17.94043,43.0873 13.81558,13.849 33.53264,22.2694 52.80965,25.5952 23.52889,4.0593 46.59677,5.7089 67.87144,-13.8956 11.74438,-10.8223 13.89067,-29.485 12.89567,-43.6139 -0.98197,-13.9439 -9.85538,-37.9331 -21.37452,-50.8075 -10.4078,-11.63227 -21.79527,-18.27582 -31.50116,-24.87318 -12.78325,-8.68912 -30.92806,-12.7612 -39.50308,0.15616 -7.04066,10.606 -5.18544,26.53362 -3.80361,39.55642 1.09396,10.3098 3.80144,22.6924 12.36209,28.5408 9.64861,6.5917 28.87322,6.4268 35.28551,1.0425 11.96237,-10.0445 23.1243,-24.5446 29.52168,-33.783 7.29416,-10.5335 7.74645,-25.28868 3.77169,-37.46899 -4.80577,-14.72686 -18.14209,-26.08874 -31.16963,-34.47081 -14.36188,-9.2406 -31.77628,-14.53359 -48.82546,-15.52239 -20.46614,-1.18698 -42.90075,1.00775 -60.3721,11.73267 -17.15616,10.53144 -32.34443,28.0887 -37.10607,47.64814 -4.19096,17.21528 -5.64546,43.78578 9.64054,52.74498 13.63739,7.9929 27.82759,-4.6773 33.49867,-25.9873 4.81208,-18.08213 2.61514,-43.43957 -9.05154,-55.18754 -8.39611,-8.45461 -24.15752,-10.95496 -35.16823,-6.40091 -18.34285,7.58664 -26.03211,28.62926 -34.23183,47.87125 -2.77314,6.5077 -8.38086,22.4061 -8.9336,58.3306 -0.40151,26.0947 15.12262,50.1754 42.87486,62.7575 24.59309,11.1498 53.5176,13.5904 80.33404,10.4254 21.01918,-2.4808 43.81757,-9.8168 59.71227,-21.5109 14.48186,-10.6547 24.62132,-25.9515 22.98155,-49.3821 -0.47014,-6.718 -4.38736,-18.2142 -10.31243,-28.1336 -5.72287,-9.5809 -20.72315,-35.26425 -29.50233,-15.8286 -7.89424,17.4766 -1.95507,40.6315 8.78817,56.263 12.78867,18.6076 37.5636,32.1924 60.11823,33.2333 15.71973,0.7255 34.19979,-5.9947 43.28588,-18.843 7.5854,-10.7262 8.50631,-27.485 2.78953,-39.3133 -4.73787,-9.8029 -18.55943,-21.6052 -25.78108,-10.855 -5.21324,7.7605 5.54734,18.9717 15.78982,20.9211 11.69653,2.2261 25.12806,-8.8593 25.18704,-24.731 0.10512,-28.2886 -21.50828,-42.67081 -41.28478,-37.2525 -23.12147,6.3348 -31.6289,25.9472 -31.40578,39.082 0.0574,3.3786 -0.0657,7.58 0.19515,10.0313 0.33657,3.1633 6.85375,33.7737 31.67154,36.1451 17.53147,1.6752 40.65693,-11.4218 48.78848,-27.0435 9.28861,-17.8444 1.04985,-44.719 -11.02869,-61.16758 -19.58858,-26.67568 -50.79148,-51.57548 -78.02877,-61.29864 -16.51351,-5.89499 -35.23163,-10.20545 -52.25754,-6.01435 -14.46361,3.56037 -28.88439,12.60889 -36.94881,25.13237 -9.47639,14.71616 -15.39892,32.1971 -15.16019,43.35263 0.20422,9.54287 1.20971,22.77957 13.57012,24.18197 10.6585,1.2092 21.45857,-9.9307 25.2456,-19.96692 6.2855,-16.65749 1.66562,-37.80885 -4.95478,-53.79804 -5.23899,-12.65289 -17.44543,-25.41327 -31.06003,-26.89162 -18.29707,-1.98679 -37.94429,11.28064 -48.52682,26.33854 -10.4292,14.83973 -11.11441,35.88359 -8.22104,53.7893 2.90229,17.96094 13.86514,34.08584 24.82011,48.61194 10.85151,14.3889 26.80179,28.3211 39.53921,36.8757 8.76968,5.8898 22.54119,8.4734 23.68206,-8.1555 0.60996,-8.8905 -2.72483,-21.3844 -11.14577,-24.3001 -7.79788,-2.7 -15.71039,5.9905 -22.02578,11.3021 -11.89679,10.0058 -22.4282,22.7501 -28.08694,37.2287 -5.06675,12.9639 -11.10008,29.6841 6.37511,40.7389 15.28508,9.6693 38.60773,15.0048 53.98284,5.4793 15.05468,-9.327 19.22569,-32.0149 18.73155,-49.7178 -0.50671,-18.1534 -10.56229,-35.7441 -22.02223,-49.8321 -9.40417,-11.5608 -23.53412,-17.2701 -39.36937,-18.6234 -20.42886,-1.7459 -44.31771,-2.2194 -65.50554,3.9867 -19.08184,5.5892 -46.28641,11.8167 -52.86193,27.1364 -3.71558,8.6566 5.2844,30.163 13.60491,25.7459 20.99232,-11.144 27.3755,-50.1799 30.45221,-64.794 3.86047,-18.3369 5.25704,-56.57429 -9.43988,-55.41825 -17.75705,1.39675 -34.88702,14.08809 -38.08445,29.09636 -4.54565,21.33659 10.38034,35.66799 23.9987,44.74859 17.26657,11.5132 37.87815,21.0843 57.85391,29.6724 13.97353,6.0076 29.47574,8.7506 44.67666,9.2817 19.34364,0.6759 25.56711,-17.0486 22.51667,-31.668 -3.54635,-16.9961 -10.56219,-49.49438 -29.88703,-57.67843 -16.05179,-6.79792 -33.44801,14.67283 -43.64219,28.81323 -10.42894,14.4661 -13.31602,31.4549 -14.78581,50.6217 -1.30335,16.9963 16.97477,27.8152 31.52456,25.0574 18.72452,-3.5491 11.27855,-15.4555 6.23804,-24.0684 -5.72265,-9.7785 -14.62555,-21.1038 -25.94494,-21.5918 -12.24123,-0.5277 -20.66955,12.9884 -21.52541,23.8803 -1.17037,14.8945 14.24417,21.8051 30.89186,17.3408 12.5715,-3.3712 24.20175,-10.4984 34.21721,-18.811 7.99181,-6.633 13.38351,-12.2419 19.78351,-24.0708 4.91372,-9.0819 -1.47266,-14.5338 -12.42667,-12.4772 -12.12632,2.2767 -8.04235,15.7533 -0.62092,24.1472 11.59224,13.1113 22.46582,27.3609 36.69377,37.5516 20.50423,14.686 42.93279,29.2616 67.90885,34.6371 14.90105,3.2071 39.57729,-3.3385 42.52047,-18.2939 3.30245,-16.781 -21.74737,-25.1395 -37.15059,-24.4738 -26.79845,1.1582 -32.58141,16.0741 -78.55363,27.9997 -28.33475,7.3503 -58.16427,1.8395 -82.69401,-11.5965 -19.769,-10.8283 -34.52908,-30.2382 -45.77285,-49.7739 -18.24274,-31.6963 -10.5212,-72.64743 11.98205,-98.93728 30.61336,-35.76463 84.19141,-52.53552 131.26695,-52.11109 46.22045,0.41672 93.72255,22.40385 127.93914,53.48002 30.22979,27.45527 52.93452,68.30605 56.14059,107.69325 2.66559,32.7474 -6.27176,65.7107 -14.72016,97.4616 -5.71993,21.4967 -17.73784,40.9109 -24.14538,62.2128 -7.26815,24.163 -14.69647,48.7739 -16.08782,73.9679 -1.83343,33.1992 1.4937,67.1601 10.33772,99.2121 11.57782,41.9596 28.60885,83.8165 54.98557,118.442 7.70778,10.1182 22.14898,23.9711 29.10064,24.683 8.78912,0.9001 14.87011,-8.821 1.23836,-10.3438 -57.51776,-6.4253 -119.0628,4.84 -178.56909,7.5611 -20.38654,0.9322 -41.14006,-0.7522 -61.13197,3.3469 -20.21666,4.1452 -23.70535,-2.2031 -23.75361,-25.3064 -0.0445,-21.2846 -12.9457,-41.8166 -22.08048,-61.6372 -6.34019,-13.7569 -9.38864,-37.1899 1.5117,-49.8747 3.82704,-4.4535 11.86417,-10.2875 10.88915,0.4724 -0.74772,8.2516 -37.41567,20.9967 -57.97766,26.1763 -24.98493,6.2937 -51.58903,8.904 -77.11001,5.3631 -14.51411,-2.0138 -23.24883,-13.638 -23.94031,-29.3378 -0.17742,-4.0283 0.41129,-8.0484 0.3878,-12.3664 -0.0206,-3.7889 -2.02628,-7.6048 -1.64369,-11.1221 0.8299,-7.6295 -2.55437,-11.8492 -17.31951,-15.2872 -13.76212,-3.2044 -12.34078,-21.2348 -3.80421,-27.7402 2.50841,-1.9116 10.71264,-12.3816 18.14003,-15.7164 8.71937,-3.9149 11.01292,2.3402 6.56838,5.0793 -6.82156,4.204 -19.18057,1.6523 -28.58873,1.7408 -10.42361,0.098 -9.97866,-7.9754 -7.12011,-14.4736 2.99931,-6.8182 12.01231,-14.5922 2.30803,-29.7843 -3.99252,-6.2503 -13.40468,-6.6619 -19.10015,-11.4125 -6.15958,-5.1377 -3.38439,-8.3584 8.14321,-6.0893 6.23583,1.2274 23.46502,4.6238 14.75024,11.1017 -9.90958,7.3661 -25.5897,4.2007 -37.03989,-0.4201 -18.09991,-7.3044 -9.97225,-23.1909 -3.30311,-35.7926 11.14041,-21.0504 25.00398,-38.9395 32.45747,-61.3256 3.16009,-9.4912 8.13096,-21.3675 8.03976,-32.3365 -0.0751,-9.0365 -3.63644,-18.485 -4.2765,-28.9077 -2.47982,-40.3809 3.91302,-80.1676 19.63731,-116.5483 10.97115,-25.38353 25.8096,-50.36386 46.51878,-68.68924 35.87364,-31.74428 81.07672,-55.43672 127.90888,-65.50479 48.85576,-10.50311 100.42249,0.71343 143.28932,23.39846 35.80893,18.95001 65.4168,50.89692 86.22825,85.65704 24.95274,41.67703 35.41338,79.75403 30.60782,127.23003 -2.70126,26.6868 -15.11881,49.8807 -35.88364,96.1891 -15.84543,35.3375 -24.37244,77.6274 -23.02875,116.3315 1.37942,39.7334 12.26842,79.9153 30.25714,115.3702 22.43364,44.2156 61.84155,83.6866 113.08769,88.944 33.36684,3.4231 73.06394,-2.1403 97.41854,-25.2037 16.5151,-15.6395 24.6022,-47.0205 3.3133,-64.5982 -14.0669,-11.6146 -41.0531,-5.1546 -45.6654,15.3493 -7.1702,31.8751 19.2225,67.8285 45.9971,86.5516 32.4573,22.6969 83.1773,21.2551 125.7091,5.1804 35.8404,-13.5457 75.2459,-21.587 113.4393,-18.5395 12.9703,1.0349 37.0378,12.3251 37.0378,12.3251"/>
  </g>
</svg>
